<svg xmlns="http://www.w3.org/2000/svg" viewBox="0 0 148.25 77.49"><defs><style>.cls-1{fill:#32a189;}</style></defs><g id="Calque_2" data-name="Calque 2"><g id="Calque_1-2" data-name="Calque 1"><polygon class="cls-1" points="33.7 0 32.36 0.75 1.43 17.99 0 18.79 0 20.41 0 57.11 0 59.89 2.78 59.89 25.18 59.89 25.18 54.33 5.56 54.33 5.56 22.04 33.7 6.34 61.85 22.04 61.85 32.73 67.41 32.73 67.41 20.41 67.41 18.79 65.97 17.99 35.05 0.75 33.7 0"/><polygon class="cls-1" points="28.21 27.45 37.7 31.96 37.7 50.63 28.21 59.8 28.21 27.45"/><path class="cls-1" d="M61.9,35.92v9.34H51.13V35.92H45.65v23.7h5.48V49.9H61.9v9.72h5.48V35.92Zm19.4,24c5.79,0,10-3.89,10-9.38s-4.2-9.38-10-9.38-10,3.9-10,9.38,4.23,9.38,10,9.38m0-4.33c-2.64,0-4.67-1.9-4.67-5.05s2-5,4.67-5,4.64,1.89,4.64,5-2,5.05-4.64,5.05m36.84-14.43a8.21,8.21,0,0,0-6.57,3,6.82,6.82,0,0,0-6-3,7.39,7.39,0,0,0-5.72,2.37V41.4h-5V59.62h5.28V50.48c0-3.25,1.66-4.78,4-4.78s3.45,1.36,3.45,4.3v9.62h5.28V50.48c0-3.25,1.66-4.78,4-4.78,2.14,0,3.46,1.36,3.46,4.3v9.62h5.28V49.19c0-5.55-3.12-8.06-7.45-8.06m30,9.45c0-5.86-4.13-9.45-9.48-9.45-5.55,0-9.71,3.93-9.71,9.38s4.09,9.38,10.39,9.38c3.28,0,5.82-1,7.52-2.94l-2.81-3.05a6.2,6.2,0,0,1-4.57,1.76c-2.78,0-4.71-1.39-5.22-3.66h13.78c0-.44.1-1,.1-1.42m-9.44-5.45a4.33,4.33,0,0,1,4.47,3.79h-9a4.32,4.32,0,0,1,4.51-3.79"/><path d="M2.05,74.36c0,.52.27,1.51,2,1.51.92,0,2-.22,2-1.21,0-.73-.71-.93-1.7-1.17l-1-.23c-1.51-.35-3-.69-3-2.76,0-1,.56-2.89,3.61-2.89,2.87,0,3.65,1.89,3.66,3H5.7c-.06-.42-.21-1.42-1.92-1.42-.75,0-1.64.28-1.64,1.13s.6.89,1,1l2.28.56c1.28.31,2.46.84,2.46,2.52,0,2.83-2.88,3.07-3.7,3.07-3.42,0-4-2-4-3.13Z"/><polygon points="14.63 67.86 14.63 77.25 21.25 77.25 21.25 75.55 16.59 75.55 16.59 67.86 14.63 67.86"/><path d="M31.89,75.83c1.06,0,2.55-.65,2.55-3.28S33,69.27,31.89,69.27s-2.55.66-2.55,3.28,1.49,3.28,2.55,3.28m0-8.22c1.24,0,4.51.54,4.51,4.94s-3.27,4.94-4.51,4.94-4.51-.53-4.51-4.94,3.27-4.94,4.51-4.94"/><path d="M48.92,72.19h3.93v5.06H51.54l-.2-1.18a3.45,3.45,0,0,1-2.93,1.42c-2.26,0-4.31-1.62-4.31-4.91,0-2.55,1.41-5,4.56-5h0c2.87,0,4,1.87,4.12,3.17h-2a2.07,2.07,0,0,0-2.06-1.55c-1.39,0-2.69,1-2.69,3.38,0,2.56,1.4,3.22,2.73,3.22a2.33,2.33,0,0,0,2.28-2.06H48.92Z"/><path d="M64.09,70h0l1.17,3.71H62.89ZM63,67.86l-3.35,9.38h2.07l.65-1.93h3.47l.6,1.93h2.13l-3.31-9.38Z"/><polygon points="82.03 67.86 82.03 74.4 82.01 74.4 78.28 67.86 76.22 67.86 76.22 77.25 78.05 77.25 78.05 70.56 78.08 70.56 81.9 77.25 83.86 77.25 83.86 67.86 82.03 67.86"/><polygon points="101.72 67.86 101.72 71.42 98.06 71.42 98.06 67.86 96.1 67.86 96.1 77.25 98.06 77.25 98.06 73.04 101.72 73.04 101.72 77.25 103.68 77.25 103.68 67.86 101.72 67.86"/><polygon points="111.71 67.86 111.71 77.25 118.83 77.25 118.83 75.59 113.63 75.59 113.63 73.16 118.2 73.16 118.2 71.5 113.63 71.5 113.63 69.52 118.61 69.52 118.61 67.86 111.71 67.86"/><path d="M130.29,72c1,0,1.52-.35,1.52-1.28,0-.5-.22-1.23-1.37-1.23H128V72Zm-4.22-4.13h4.75a2.65,2.65,0,0,1,3,2.66,2.23,2.23,0,0,1-1.45,2.23c.77.34,1.19.63,1.19,2.38,0,1.37,0,1.71.42,1.87v.25h-2.17a6.32,6.32,0,0,1-.21-1.9c0-1.28-.08-1.78-1.53-1.78h-2v3.68h-1.92Z"/><polygon points="141.13 67.86 141.13 77.25 148.25 77.25 148.25 75.59 143.05 75.59 143.05 73.16 147.63 73.16 147.63 71.5 143.05 71.5 143.05 69.52 148.03 69.52 148.03 67.86 141.13 67.86"/></g></g></svg>